<svg viewBox="0 0 200 200" xmlns="http://www.w3.org/2000/svg">
<defs>
<linearGradient id="m" x1="0" y1="0" x2="1" y2="1">
<stop offset="0" stop-color="#0aa8a7"/>
<stop offset=".5" stop-color="#078584"/>
<stop offset="1" stop-color="#055f5e"/>
</linearGradient>
<linearGradient id="o" x1="0" y1="0" x2="1" y2="1">
<stop offset="0" stop-color="#ff8c42"/>
<stop offset="1" stop-color="#e67d3a"/>
</linearGradient>
<linearGradient id="d" x1="0" y1="0" x2="1" y2="1">
<stop offset="0" stop-color="#2d3748" stop-opacity=".8"/>
<stop offset="1" stop-color="#1a202c" stop-opacity=".9"/>
</linearGradient>
</defs>
<path d="M0 140L40 100L70 115L100 90L140 105L170 85L200 95V200H0Z" fill="url(#m)" opacity=".6"/>
<path d="M0 160L30 120L60 135L90 110L120 125L150 105L180 115L200 110V200H0Z" fill="url(#o)"/>
<path d="M0 170L25 130L50 145L80 125L110 140L140 120L170 130L200 125V200H0Z" fill="url(#m)"/>
<path d="M0 180L20 140L40 155L70 135L100 150L130 130L160 140L190 135L200 140V200H0Z" fill="url(#d)"/>
<text x="100" y="70" text-anchor="middle" font-family="Impact,Arial Black,sans-serif" font-size="40" font-weight="900" fill="#0aa8a7" transform="skewX(-12)">CSC</text>
</svg>